<svg xmlns="http://www.w3.org/2000/svg" viewBox="0 0 80 80" fill="none">
  <defs>
    <linearGradient id="learnGrad" x1="0%" y1="0%" x2="100%" y2="100%">
      <stop offset="0%" style="stop-color:#6366f1"/>
      <stop offset="100%" style="stop-color:#06b6d4"/>
    </linearGradient>
  </defs>
  
  <!-- Graduation cap -->
  <polygon points="40,12 10,28 40,44 70,28" fill="none" stroke="url(#learnGrad)" stroke-width="2"/>
  <line x1="40" y1="44" x2="40" y2="55" stroke="#6366f1" stroke-width="2"/>
  
  <!-- Cap top -->
  <rect x="35" y="8" width="10" height="4" fill="#6366f1"/>
  
  <!-- Book -->
  <path d="M18 50 Q18 45 30 45 L40 45 Q52 45 52 50 L52 68 Q52 63 40 63 L40 63 Q28 63 18 68 Z" fill="none" stroke="url(#learnGrad)" stroke-width="2"/>
  
  <!-- Book center line -->
  <line x1="40" y1="45" x2="40" y2="63" stroke="#818cf8" stroke-width="1.5"/>
  
  <!-- Book pages -->
  <line x1="22" y1="52" x2="37" y2="52" stroke="#6366f1" stroke-width="1" opacity="0.6"/>
  <line x1="22" y1="56" x2="37" y2="56" stroke="#06b6d4" stroke-width="1" opacity="0.6"/>
  <line x1="43" y1="52" x2="58" y2="52" stroke="#6366f1" stroke-width="1" opacity="0.6"/>
  <line x1="43" y1="56" x2="58" y2="56" stroke="#06b6d4" stroke-width="1" opacity="0.6"/>
  
  <!-- Stars -->
  <circle cx="62" cy="35" r="2" fill="#fbbf24"/>
  <circle cx="18" cy="38" r="1.5" fill="#f472b6"/>
  <circle cx="65" cy="52" r="1.5" fill="#34d399"/>
</svg>
